PERFORMER "Armin van Buuren"
TITLE "Essential Mix (2003-02-09)"
FILE "2003-02-09 - EM - Armin Van Buuren.mp3" MP3
  TRACK 01 AUDIO
    TITLE "Intro"
    PERFORMER "Essential Mix"
    INDEX 01 00:00:00
  TRACK 02 AUDIO
    TITLE "Mushroom Therapy (Lightscape Remix)"
    PERFORMER "Mark Otten"
    INDEX 01 01:10:44
  TRACK 03 AUDIO
    TITLE "Nothing (93 Returning Mix)"
    PERFORMER "Holden & Thompson"
    INDEX 01 04:04:74
  TRACK 04 AUDIO
    TITLE "Amazing (Fade Sanctuary Remix)"
    PERFORMER "Andy Hunter"
    INDEX 01 10:34:70
  TRACK 05 AUDIO
    TITLE "U Feel"
    PERFORMER "Yahel"
    INDEX 01 17:19:40
  TRACK 06 AUDIO
    TITLE "Untitled"
    PERFORMER "Scott Bond vs. Solarstone"
    INDEX 01 24:03:00
  TRACK 07 AUDIO
    TITLE "Yet Another Day (Sunday 5pm Remix)"
    PERFORMER "Armin van Buuren feat. Ray Wilson"
    INDEX 01 32:45:74
  TRACK 08 AUDIO
    TITLE "Affinity"
    PERFORMER "Hydra"
    INDEX 01 39:35:32
  TRACK 09 AUDIO
    TITLE "Hibernation"
    PERFORMER "AR52"
    INDEX 01 45:43:30
  TRACK 10 AUDIO
    TITLE "North Pole"
    PERFORMER "Solid Globe"
    INDEX 01 50:11:32
  TRACK 11 AUDIO
    TITLE "Remeber"
    PERFORMER "P.O.S."
    INDEX 01 57:21:50
  TRACK 12 AUDIO
    TITLE "Indogo"
    PERFORMER "Ferry Corsten"
    INDEX 01 62:44:74
  TRACK 13 AUDIO
    TITLE "Song For The Ocean"
    PERFORMER "Armin van Buuren"
    INDEX 01 69:26:00
  TRACK 14 AUDIO
    TITLE "7"
    PERFORMER "Orange"
    INDEX 01 75:04:00
  TRACK 15 AUDIO
    TITLE "Rococco"
    PERFORMER "Kansai"
    INDEX 01 87:21:74
  TRACK 16 AUDIO
    TITLE "Solarcoaster (Midway Remix)"
    PERFORMER "Solarstone"
    INDEX 01 92:27:74
  TRACK 17 AUDIO
    TITLE "Wizardy"
    PERFORMER "The Green Martian"
    INDEX 01 99:32:31
  TRACK 18 AUDIO
    TITLE "Nexus"
    PERFORMER "Unknown"
    INDEX 01 107:36:50
  TRACK 19 AUDIO
    TITLE "Point Zero"
    PERFORMER "Li Kwan"
    INDEX 01 112:27:30